<svg width="41" height="55" viewBox="0 0 41 55" fill="none" xmlns="http://www.w3.org/2000/svg">
<g clip-path="url(#clip0_626_888)">
<path d="M37.33 13.06C38.22 15.23 38.71 17.61 38.71 20.1C38.71 30.38 20.11 53.16 20.11 53.16C20.11 53.16 1.51001 30.37 1.51001 20.1C1.51001 9.83 9.83001 1.5 20.1 1.5C23.9 1.5 27.43 2.64 30.37 4.59" stroke="#12438D" stroke-width="3" stroke-linecap="round" stroke-linejoin="round"/>
<path d="M28.5799 16.46C28.7499 17.14 28.8399 17.86 28.8399 18.6C28.8399 23.41 24.9399 27.31 20.1299 27.31C15.3199 27.31 11.4199 23.41 11.4199 18.6C11.4199 13.79 15.3199 9.89001 20.1299 9.89001C21.6799 9.89001 23.1399 10.3 24.4099 11.01" stroke="#12438D" stroke-width="3" stroke-linecap="round" stroke-linejoin="round"/>
</g>
<defs>
<clipPath id="clip0_626_888">
<rect width="40.21" height="54.67" fill="white"/>
</clipPath>
</defs>
</svg>
