<svg xmlns="http://www.w3.org/2000/svg" width="29.513" height="31.868" viewBox="0 0 29.513 31.868">
  <g id="グループ_9195" data-name="グループ 9195" transform="translate(-3.067 -4.638)">
    <path id="パス_27552" data-name="パス 27552" d="M2,9.148A26.871,26.871,0,0,0,5.88,22.871,26.858,26.858,0,0,0,15.967,32.948c4.618,2.552,8.4-.981,8.792-1.306s1.466-1.989.543-3.232a27.248,27.248,0,0,0-4.951-4.442,2.309,2.309,0,0,0-2.743,1.14c-.584,1-1.12.751-1.12.751s-1.957-1.363-4.883-6.348-3.159-7.358-3.159-7.358.042-.59,1.2-.612A2.31,2.31,0,0,0,11.981,9.7a27.223,27.223,0,0,0-1.464-6.488C9.882,1.8,7.908,1.925,7.432,2.111a5.983,5.983,0,0,0-.67.263A9.2,9.2,0,0,0,3.6,4.652,7.474,7.474,0,0,0,2,9.148Z" transform="translate(1.066 2.639)" fill="#333"/>
    <path id="パス_27553" data-name="パス 27553" d="M51.205,6.389A13.844,13.844,0,0,1,59.818,23.97" transform="translate(-29.029 -0.047)" fill="none" stroke="#333" stroke-linecap="round" stroke-linejoin="round" stroke-width="2"/>
    <path id="パス_27554" data-name="パス 27554" d="M47.357,17.63A9.229,9.229,0,0,1,53.1,29.351" transform="translate(-26.676 -6.922)" fill="none" stroke="#333" stroke-linecap="round" stroke-linejoin="round" stroke-width="2"/>
    <path id="パス_27555" data-name="パス 27555" d="M43.508,28.872a4.615,4.615,0,0,1,2.871,5.86" transform="translate(-24.322 -13.797)" fill="none" stroke="#333" stroke-linecap="round" stroke-linejoin="round" stroke-width="2"/>
  </g>
</svg>