<svg xmlns="http://www.w3.org/2000/svg" width="27.789" height="29.64" viewBox="0 0 27.789 29.64">
  <path id="パス_34174" data-name="パス 34174" d="M9.578,13.839a30.3,30.3,0,0,0,4.811,4.7c.841.458.955-.293.98-.548a1.716,1.716,0,0,1,.917-1.2,1.771,1.771,0,0,1,1.807.025,24.489,24.489,0,0,1,3.844,2.5,2.174,2.174,0,0,1,.178,3.029,7.044,7.044,0,0,1-3.259,2.24,6.162,6.162,0,0,1-3.589,0A18.337,18.337,0,0,1,9.795,21.7,23.274,23.274,0,0,1,4.6,16.385,21.859,21.859,0,0,1,1.114,9.054c-.534-2.368-.432-3.845,0-4.888a7.18,7.18,0,0,1,2.9-3.131C5.111.551,6.409.7,6.817,1.34a22.067,22.067,0,0,1,1.96,4.3c.279,1.171.153,1.782-.484,2.189a4.587,4.587,0,0,1-1.368.623c-.382.115-.5.344-.325.783A28.773,28.773,0,0,0,9.578,13.839Z" transform="matrix(0.988, 0.156, -0.156, 0.988, 4.281, 0.401)" fill="#fff0f4" stroke="#f6809b" stroke-miterlimit="10" stroke-width="2"/>
</svg>