<svg width="319" height="63" viewBox="0 0 319 63" fill="none" xmlns="http://www.w3.org/2000/svg">
<path d="M57.9298 9.86296H65.6378V10.7447H57.9298V9.86296ZM55.9534 12.7059H66.3675V13.6181H55.9534V12.7059ZM60.5143 10.1822H61.5177V12.5843C61.5177 13.0303 61.462 13.4914 61.3505 13.9678C61.239 14.434 61.016 14.9002 60.6816 15.3665C60.3471 15.8226 59.8454 16.2634 59.1765 16.6891C58.5177 17.1047 57.6409 17.4797 56.5463 17.8142C56.5058 17.7432 56.45 17.6621 56.3791 17.5709C56.3081 17.4696 56.2321 17.3783 56.151 17.2973C56.07 17.206 55.9939 17.125 55.923 17.054C56.9669 16.7601 57.798 16.4357 58.4163 16.081C59.0346 15.7161 59.4907 15.331 59.7846 14.9256C60.0886 14.5202 60.2863 14.1198 60.3775 13.7245C60.4687 13.3191 60.5143 12.934 60.5143 12.5691V10.1822ZM58.3099 8.38826L59.2677 8.63151C58.994 9.32071 58.6342 9.96938 58.1883 10.5775C57.7423 11.1856 57.2761 11.6975 56.7896 12.113C56.7288 12.0623 56.6426 12.0066 56.5311 11.9458C56.4298 11.8748 56.3233 11.8089 56.2119 11.7481C56.1105 11.6873 56.0193 11.6366 55.9382 11.5961C56.4348 11.211 56.8909 10.7346 57.3065 10.167C57.7322 9.59944 58.0666 9.00652 58.3099 8.38826ZM61.5481 13.2836C61.913 14.2566 62.511 15.0472 63.3421 15.6553C64.1732 16.2634 65.207 16.6891 66.4435 16.9324C66.332 17.0337 66.2155 17.1706 66.0938 17.3429C65.9722 17.505 65.8759 17.652 65.805 17.7838C64.5178 17.4797 63.4434 16.9729 62.5819 16.2634C61.7204 15.5438 61.0768 14.6164 60.6512 13.4813L61.5481 13.2836ZM54.0074 7.1112H66.6412V8.0994H55.026V20.1706H54.0074V7.1112ZM54.6611 18.4527H66.9756V19.4409H54.6611V18.4527ZM72.2207 10.0454H82.1179V10.8664H72.2207V10.0454ZM72.3271 11.5809L72.9048 11.1096C73.1785 11.292 73.4673 11.5049 73.7714 11.7481C74.0856 11.9914 74.3288 12.2093 74.5011 12.4019L73.9082 12.934C73.7359 12.7414 73.4977 12.5184 73.1937 12.265C72.8998 12.0015 72.6109 11.7735 72.3271 11.5809ZM78.834 17.5709L79.5942 17.1604C79.878 17.3834 80.1719 17.6368 80.476 17.9206C80.7901 18.2044 81.079 18.4831 81.3425 18.7568C81.6162 19.0304 81.8341 19.2787 81.9963 19.5017L81.2057 19.9882C81.0537 19.7551 80.8459 19.4966 80.5824 19.2128C80.329 18.9291 80.0452 18.6453 79.731 18.3615C79.4269 18.0675 79.1279 17.804 78.834 17.5709ZM74.5011 15.0624V16.081H79.5486V15.0624H74.5011ZM74.5011 13.3901V14.3935H79.5486V13.3901H74.5011ZM73.6042 12.6907H80.4607V16.7956H73.6042V12.6907ZM73.969 17.1452L74.8964 17.4037C74.5924 17.88 74.2072 18.3463 73.741 18.8024C73.2849 19.2483 72.8288 19.6233 72.3727 19.9274C72.3322 19.8666 72.2663 19.7956 72.1751 19.7145C72.0839 19.6335 71.9876 19.5524 71.8862 19.4713C71.7849 19.4003 71.6936 19.3446 71.6126 19.3041C72.0687 19.0304 72.5045 18.7061 72.92 18.3311C73.3457 17.9561 73.6954 17.5608 73.969 17.1452ZM81.1449 11.0184L81.7986 11.4745C81.5554 11.7177 81.2918 11.9559 81.0081 12.189C80.7243 12.4221 80.4607 12.6198 80.2175 12.7819L79.655 12.3715C79.8982 12.1992 80.1618 11.9813 80.4455 11.7177C80.7395 11.4441 80.9726 11.211 81.1449 11.0184ZM78.4235 10.3343C78.6871 10.8106 79.0317 11.2667 79.4573 11.7025C79.883 12.1383 80.3543 12.5286 80.8712 12.8732C81.3881 13.2178 81.9152 13.4914 82.4523 13.6941C82.351 13.7853 82.2395 13.9019 82.1179 14.0438C81.9963 14.1857 81.9 14.3124 81.829 14.4239C81.2817 14.1806 80.7445 13.8614 80.2175 13.4661C79.6905 13.0708 79.204 12.6299 78.758 12.1434C78.3222 11.6468 77.9573 11.1349 77.6634 10.6079L78.4235 10.3343ZM76.508 16.3547H77.4961V19.1672C77.4961 19.4206 77.4607 19.6132 77.3897 19.745C77.3289 19.8868 77.1972 19.9882 76.9944 20.049C76.7917 20.12 76.5282 20.1605 76.2039 20.1706C75.8796 20.1909 75.4691 20.201 74.9724 20.201C74.942 20.0794 74.8914 19.9375 74.8204 19.7754C74.7596 19.6233 74.6988 19.4865 74.638 19.3649C75.0231 19.375 75.3627 19.3801 75.6566 19.3801C75.9606 19.3801 76.1633 19.375 76.2647 19.3649C76.3559 19.3649 76.4167 19.3446 76.4471 19.3041C76.4877 19.2737 76.508 19.223 76.508 19.152V16.3547ZM76.3103 8.67712L77.2833 8.81395C77.0603 9.51329 76.7309 10.2126 76.2951 10.912C75.8593 11.6012 75.3069 12.2498 74.638 12.858C73.9792 13.4661 73.1835 14.0083 72.2511 14.4847C72.1801 14.3631 72.0788 14.2364 71.947 14.1046C71.8254 13.9729 71.7088 13.8766 71.5974 13.8158C72.4893 13.3901 73.2494 12.8985 73.8778 12.3411C74.5163 11.7735 75.0333 11.1755 75.4285 10.5471C75.8339 9.90857 76.1279 9.28524 76.3103 8.67712ZM71.0653 7.70412H82.3155V8.5859H71.0653V7.70412ZM70.5483 7.70412H71.5061V12.5995C71.5061 13.1772 71.4808 13.8006 71.4301 14.4695C71.3794 15.1283 71.2781 15.7972 71.1261 16.4763C70.9842 17.1554 70.7713 17.8142 70.4875 18.4527C70.2037 19.0912 69.8237 19.674 69.3473 20.201C69.3068 20.1301 69.2409 20.049 69.1497 19.9578C69.0584 19.8767 68.9672 19.7956 68.876 19.7145C68.7848 19.6335 68.7037 19.5726 68.6328 19.5321C69.0686 19.0355 69.4132 18.4983 69.6666 17.9206C69.9301 17.3429 70.1227 16.7499 70.2443 16.1418C70.376 15.5236 70.4571 14.9154 70.4875 14.3175C70.5281 13.7195 70.5483 13.1468 70.5483 12.5995V7.70412ZM75.5806 6.25983H76.6296V8.16021H75.5806V6.25983ZM68.4503 9.30044L69.2257 8.99638C69.4689 9.47275 69.6868 9.98458 69.8794 10.5319C70.0821 11.0691 70.2088 11.5302 70.2595 11.9154L69.4385 12.2802C69.4081 12.0167 69.3422 11.7177 69.2409 11.3833C69.1395 11.0387 69.023 10.6839 68.8912 10.319C68.7595 9.95418 68.6125 9.61464 68.4503 9.30044ZM68.2071 14.956C68.5517 14.7837 68.952 14.581 69.4081 14.3479C69.8642 14.1046 70.3406 13.8462 70.8372 13.5725L71.0653 14.3631C70.6598 14.6266 70.2443 14.885 69.8186 15.1384C69.3929 15.3817 68.9774 15.6148 68.5719 15.8378L68.2071 14.956ZM87.6062 12.6907H97.3666V13.6637H87.6062V12.6907ZM88.3815 8.79874H96.652V9.77174H88.3815V8.79874ZM91.9239 6.25983H92.9577V13.3901H91.9239V6.25983ZM87.6366 18.4375C88.3258 18.3969 89.1366 18.3564 90.0691 18.3159C91.0015 18.2652 91.9897 18.2094 93.0337 18.1486C94.0878 18.0878 95.1469 18.027 96.2111 17.9662L96.1959 18.8936C95.1824 18.9645 94.1638 19.0355 93.1401 19.1064C92.1266 19.1774 91.1586 19.2432 90.2363 19.3041C89.314 19.3649 88.493 19.4206 87.7734 19.4713L87.6366 18.4375ZM93.809 15.7465L94.6756 15.2905C95.0608 15.7364 95.4459 16.2229 95.831 16.7499C96.2162 17.277 96.5659 17.799 96.8801 18.3159C97.1943 18.8226 97.4324 19.2838 97.5946 19.6993L96.652 20.2162C96.5 19.8108 96.2719 19.3497 95.9679 18.8328C95.6638 18.3159 95.3243 17.7888 94.9493 17.2516C94.5743 16.7043 94.1942 16.2026 93.809 15.7465ZM90.9357 13.3293L92.0303 13.6333C91.8073 14.2212 91.559 14.8445 91.2853 15.5033C91.0218 16.152 90.7482 16.7854 90.4644 17.4037C90.1806 18.0118 89.912 18.554 89.6586 19.0304L88.7616 18.6959C88.9542 18.3513 89.1518 17.9561 89.3545 17.5101C89.5572 17.054 89.7549 16.5827 89.9475 16.0962C90.14 15.5996 90.3225 15.1182 90.4948 14.6519C90.6671 14.1756 90.814 13.7347 90.9357 13.3293ZM84.3527 7.12641L84.9152 6.36625C85.27 6.48788 85.6349 6.63991 86.0099 6.82234C86.395 6.99464 86.7548 7.17708 87.0893 7.36965C87.4339 7.56223 87.7177 7.74973 87.9407 7.93217L87.3477 8.78354C87.1349 8.6011 86.8612 8.40853 86.5268 8.20582C86.1923 8.00312 85.8325 7.80548 85.4474 7.6129C85.0723 7.42033 84.7075 7.25817 84.3527 7.12641ZM83.5622 11.3225L84.0791 10.5471C84.4338 10.6484 84.8038 10.7802 85.1889 10.9424C85.574 11.0944 85.9389 11.2616 86.2835 11.4441C86.6281 11.6164 86.917 11.7836 87.1501 11.9458L86.6028 12.8124C86.3798 12.6502 86.096 12.4779 85.7514 12.2954C85.4169 12.113 85.0571 11.9356 84.672 11.7633C84.2869 11.591 83.9169 11.4441 83.5622 11.3225ZM84.0943 19.3345C84.3679 18.9392 84.6619 18.4679 84.9761 17.9206C85.3004 17.3733 85.6247 16.7956 85.9491 16.1874C86.2835 15.5692 86.5876 14.9763 86.8612 14.4087L87.6214 15.0624C87.368 15.5996 87.0893 16.1621 86.7852 16.7499C86.4812 17.3277 86.172 17.8952 85.8578 18.4527C85.5538 19.0101 85.2598 19.527 84.9761 20.0034L84.0943 19.3345ZM105.044 6.74633H106.169C106.149 7.13147 106.113 7.64838 106.063 8.29704C106.012 8.94571 105.916 9.67545 105.774 10.4863C105.642 11.2971 105.434 12.1434 105.151 13.0252C104.867 13.907 104.482 14.7786 103.995 15.6401C103.519 16.5016 102.911 17.3125 102.171 18.0726C101.441 18.8328 100.549 19.4916 99.495 20.049C99.4139 19.9274 99.2973 19.7906 99.1453 19.6385C98.9933 19.4966 98.8362 19.375 98.674 19.2737C99.718 18.7466 100.595 18.1233 101.304 17.4037C102.024 16.6739 102.612 15.8986 103.068 15.0776C103.534 14.2566 103.894 13.4255 104.147 12.5843C104.411 11.7431 104.603 10.9424 104.725 10.1822C104.846 9.42207 104.922 8.743 104.953 8.14501C104.993 7.54702 105.024 7.0808 105.044 6.74633ZM106.108 7.03519C106.118 7.19735 106.139 7.49128 106.169 7.91696C106.21 8.34265 106.281 8.85449 106.382 9.45247C106.483 10.0505 106.63 10.7042 106.823 11.4137C107.026 12.113 107.289 12.8377 107.613 13.5877C107.938 14.3276 108.338 15.0523 108.814 15.7617C109.301 16.4611 109.879 17.1098 110.548 17.7077C111.217 18.2956 112.002 18.7973 112.904 19.2128C112.752 19.3243 112.605 19.4561 112.463 19.6081C112.321 19.7703 112.205 19.9223 112.114 20.0642C111.201 19.6284 110.401 19.0963 109.711 18.4679C109.022 17.8395 108.429 17.1554 107.933 16.4155C107.446 15.6655 107.036 14.9002 106.701 14.1198C106.377 13.3394 106.113 12.5742 105.911 11.8242C105.708 11.0741 105.551 10.3799 105.439 9.74133C105.338 9.1028 105.267 8.55549 105.227 8.0994C105.186 7.63317 105.161 7.30377 105.151 7.1112L106.108 7.03519ZM119.502 18.7568H128.077V19.745H119.502V18.7568ZM120.095 11.2768H127.757V12.2498H120.095V11.2768ZM123.409 6.36625H124.458V19.228H123.409V6.36625ZM114.196 9.11801H119.259V10.0606H114.196V9.11801ZM116.644 13.5573L117.647 12.3563V20.1858H116.644V13.5573ZM116.644 6.25983H117.647V9.5893H116.644V6.25983ZM117.571 12.6147C117.693 12.7059 117.881 12.858 118.134 13.0708C118.397 13.2836 118.671 13.5168 118.955 13.7701C119.249 14.0134 119.517 14.2414 119.761 14.4543C120.014 14.6671 120.191 14.8242 120.293 14.9256L119.669 15.7465C119.538 15.5945 119.35 15.4019 119.107 15.1688C118.874 14.9256 118.62 14.6722 118.347 14.4087C118.083 14.1452 117.825 13.9019 117.571 13.6789C117.328 13.4559 117.131 13.2786 116.979 13.1468L117.571 12.6147ZM118.879 9.11801H119.092L119.274 9.0724L119.852 9.45247C119.477 10.3748 118.985 11.2566 118.377 12.0978C117.769 12.939 117.105 13.7043 116.386 14.3935C115.666 15.0725 114.946 15.6452 114.227 16.1114C114.186 16.0202 114.13 15.9188 114.06 15.8074C113.999 15.6857 113.933 15.5742 113.862 15.4729C113.801 15.3614 113.74 15.2752 113.679 15.2144C114.369 14.809 115.048 14.2972 115.717 13.6789C116.396 13.0505 117.014 12.3613 117.571 11.6113C118.129 10.8613 118.565 10.1011 118.879 9.33085V9.11801ZM131.68 10.5623H140.817V11.4593H131.68V10.5623ZM137.7 8.54029H138.658V16.5979C138.658 16.902 138.612 17.13 138.521 17.2821C138.44 17.4341 138.293 17.5506 138.08 17.6317C137.878 17.7027 137.584 17.7432 137.199 17.7533C136.824 17.7635 136.337 17.7686 135.739 17.7686C135.719 17.6469 135.678 17.505 135.617 17.3429C135.557 17.1706 135.496 17.0185 135.435 16.8868C135.891 16.8969 136.302 16.902 136.666 16.902C137.031 16.902 137.275 16.902 137.396 16.902C137.508 16.8918 137.584 16.8665 137.624 16.826C137.675 16.7854 137.7 16.7094 137.7 16.5979V8.54029ZM132.896 12.6755L133.656 12.2954C133.93 12.5691 134.188 12.8782 134.432 13.2228C134.685 13.5573 134.908 13.8867 135.101 14.211C135.303 14.5354 135.455 14.8344 135.557 15.108L134.751 15.5489C134.66 15.2752 134.518 14.9712 134.325 14.6367C134.133 14.3023 133.91 13.9678 133.656 13.6333C133.413 13.2887 133.16 12.9695 132.896 12.6755ZM129.825 6.97437H142.52V20.1858H141.471V7.94737H130.844V20.1858H129.825V6.97437ZM130.418 18.5135H141.896V19.4865H130.418V18.5135ZM158.098 7.096L158.812 6.56389C159.106 6.7666 159.4 6.99971 159.694 7.26323C159.998 7.51662 160.282 7.77 160.545 8.02339C160.809 8.27677 161.017 8.50988 161.169 8.72273L160.424 9.34605C160.272 9.13321 160.064 8.89503 159.8 8.63151C159.547 8.36799 159.273 8.0994 158.979 7.82575C158.685 7.55209 158.392 7.30884 158.098 7.096ZM147.972 9.99978H161.503V10.9424H147.972V9.99978ZM152.685 13.7093H155.756V14.6367H152.685V13.7093ZM149.204 7.20242H155.027V8.14501H149.204V7.20242ZM147.805 18.9544C148.494 18.8429 149.295 18.7111 150.207 18.5591C151.119 18.4071 152.092 18.2398 153.126 18.0574C154.16 17.875 155.184 17.6875 156.197 17.4949L156.273 18.4527C155.31 18.6351 154.332 18.8176 153.339 19C152.356 19.1824 151.413 19.3547 150.511 19.5169C149.609 19.6791 148.798 19.826 148.079 19.9578L147.805 18.9544ZM152.077 11.5049H153.065V18.6807H152.077V11.5049ZM149.219 12.6907H150.162V19.076H149.219V12.6907ZM156.273 6.32064H157.307C157.287 7.80041 157.317 9.19402 157.398 10.5015C157.479 11.7988 157.601 12.9847 157.763 14.059C157.925 15.1232 158.128 16.0405 158.371 16.8108C158.614 17.581 158.893 18.174 159.207 18.5895C159.522 19.0051 159.866 19.2128 160.241 19.2128C160.454 19.2128 160.606 18.9848 160.697 18.5287C160.799 18.0726 160.87 17.3327 160.91 16.3091C161.022 16.4104 161.158 16.5118 161.321 16.6131C161.493 16.7145 161.645 16.7905 161.777 16.8412C161.726 17.7027 161.64 18.3817 161.518 18.8784C161.397 19.3649 161.229 19.7095 161.017 19.9122C160.804 20.1149 160.515 20.2162 160.15 20.2162C159.674 20.2162 159.243 20.049 158.858 19.7145C158.483 19.3801 158.153 18.9088 157.87 18.3007C157.586 17.6824 157.342 16.9527 157.14 16.1114C156.947 15.26 156.785 14.3175 156.653 13.2836C156.532 12.2498 156.435 11.1501 156.364 9.98458C156.304 8.80888 156.273 7.58756 156.273 6.32064ZM163.267 7.24803H176.63V8.14501H163.267V7.24803ZM164.726 10.2886H176.706V11.1856H164.726V10.2886ZM166.398 17.9814H171.537V18.7568H166.398V17.9814ZM166.855 6.25983H167.858V9.34605H166.855V6.25983ZM171.963 6.25983H172.966V9.27004H171.963V6.25983ZM168.542 12.4627H169.317V14.3175H168.542V12.4627ZM168.542 16.4459H169.317V18.3463H168.542V16.4459ZM166.505 13.9678H171.355V16.7804H166.505V16.0658H170.579V14.6823H166.505V13.9678ZM166.034 12.113H171.431V12.858H166.855V19.5625H166.034V12.113ZM164.24 10.2886H165.197V14.0742C165.197 14.5506 165.177 15.0573 165.137 15.5945C165.106 16.1317 165.035 16.6739 164.924 17.2212C164.822 17.7686 164.67 18.3007 164.468 18.8176C164.275 19.3345 164.017 19.8058 163.692 20.2314C163.642 20.1706 163.566 20.1048 163.464 20.0338C163.363 19.973 163.262 19.9071 163.16 19.8362C163.059 19.7754 162.968 19.7247 162.887 19.6841C163.302 19.147 163.601 18.554 163.784 17.9054C163.976 17.2466 164.098 16.5878 164.148 15.929C164.209 15.26 164.24 14.6367 164.24 14.059V10.2886ZM171.644 8.96598H172.632C172.662 10.689 172.774 12.1941 172.966 13.4813C173.159 14.7583 173.397 15.8226 173.681 16.6739C173.975 17.5253 174.284 18.1638 174.608 18.5895C174.932 19.0051 175.247 19.2128 175.551 19.2128C175.662 19.2027 175.753 19.1419 175.824 19.0304C175.905 18.9291 175.971 18.7415 176.022 18.4679C176.073 18.1841 176.113 17.7888 176.144 17.2821C176.255 17.3834 176.392 17.4797 176.554 17.5709C176.716 17.6621 176.863 17.728 176.995 17.7686C176.934 18.4476 176.843 18.9544 176.721 19.2889C176.61 19.6335 176.453 19.8666 176.25 19.9882C176.047 20.1098 175.789 20.1706 175.475 20.1706C174.968 20.1706 174.497 19.9173 174.061 19.4105C173.625 18.9138 173.235 18.1892 172.89 17.2364C172.556 16.2736 172.282 15.0979 172.069 13.7093C171.856 12.3208 171.714 10.7397 171.644 8.96598ZM173.757 8.98118L174.365 8.50988C174.679 8.68219 174.998 8.88996 175.323 9.13321C175.657 9.37646 175.905 9.60451 176.068 9.81735L175.444 10.3495C175.272 10.1366 175.024 9.9035 174.699 9.65011C174.385 9.38659 174.071 9.16362 173.757 8.98118ZM174.806 12.0674L175.794 12.2498C175.338 14.0641 174.674 15.6351 173.802 16.9628C172.931 18.2905 171.851 19.3801 170.564 20.2314C170.513 20.1605 170.437 20.0845 170.336 20.0034C170.245 19.9223 170.143 19.8362 170.032 19.745C169.931 19.6639 169.839 19.5929 169.758 19.5321C171.056 18.772 172.12 17.7635 172.951 16.5067C173.782 15.2398 174.4 13.76 174.806 12.0674ZM179.534 10.4559V12.2346H184.323V10.4559H179.534ZM179.534 7.88656V9.63491H184.323V7.88656H179.534ZM178.667 7.01998H185.22V13.086H178.667V7.01998ZM178.637 14.88H185.22V15.8226H178.637V14.88ZM178.15 18.5895C178.759 18.5084 179.463 18.4172 180.264 18.3159C181.074 18.2044 181.936 18.0827 182.848 17.951C183.76 17.8192 184.683 17.6925 185.615 17.5709L185.63 18.4679C184.749 18.5997 183.867 18.7365 182.985 18.8784C182.103 19.0101 181.257 19.1368 180.446 19.2585C179.645 19.3801 178.926 19.4865 178.287 19.5777L178.15 18.5895ZM185.722 7.05039H191.316V7.97778H185.722V7.05039ZM185.539 11.9306H191.529V12.9036H185.539V11.9306ZM190.891 7.05039H191.134L191.347 7.00478L192.016 7.44567C191.752 7.84095 191.443 8.24636 191.088 8.66192C190.744 9.06733 190.379 9.45247 189.994 9.81735C189.619 10.1822 189.239 10.5015 188.853 10.7751C188.782 10.6738 188.686 10.5674 188.565 10.4559C188.453 10.3444 188.357 10.2532 188.276 10.1822C188.6 9.93897 188.924 9.65011 189.249 9.31565C189.583 8.97104 189.892 8.62137 190.176 8.26664C190.47 7.90176 190.708 7.56223 190.891 7.24803V7.05039ZM186.375 9.5893L187.029 8.96598C187.475 9.19909 187.926 9.47275 188.382 9.78694C188.848 10.091 189.284 10.4052 189.69 10.7295C190.095 11.0539 190.419 11.3478 190.663 11.6113L190.009 12.3259C189.755 12.0421 189.431 11.738 189.036 11.4137C188.641 11.0792 188.21 10.7549 187.744 10.4407C187.277 10.1163 186.821 9.83255 186.375 9.5893ZM191.225 11.9306H191.392L191.56 11.885L192.259 12.0826C192.066 12.7009 191.853 13.3394 191.62 13.9982C191.387 14.6469 191.154 15.1992 190.921 15.6553L190.085 15.3969C190.217 15.1232 190.348 14.804 190.48 14.4391C190.622 14.0641 190.759 13.6739 190.891 13.2684C191.022 12.863 191.134 12.4779 191.225 12.113V11.9306ZM188.063 12.4171H189.066V18.9088C189.066 19.2128 189.026 19.446 188.945 19.6081C188.864 19.7804 188.711 19.9122 188.489 20.0034C188.266 20.0744 187.956 20.12 187.561 20.1402C187.176 20.1605 186.695 20.1706 186.117 20.1706C186.097 20.0287 186.051 19.8615 185.98 19.6689C185.919 19.4764 185.848 19.3041 185.767 19.152C186.244 19.1622 186.664 19.1672 187.029 19.1672C187.394 19.1774 187.637 19.1774 187.759 19.1672C187.88 19.1672 187.961 19.147 188.002 19.1064C188.043 19.0659 188.063 18.9899 188.063 18.8784V12.4171ZM181.495 7.35445H182.377V12.7515H182.422V18.3615H181.449V12.7515H181.495V7.35445ZM194.235 18.6351C195.117 18.6047 196.146 18.5743 197.321 18.5439C198.507 18.5034 199.764 18.4578 201.092 18.4071C202.43 18.3564 203.763 18.3007 205.09 18.2398L205.06 19.1824C203.773 19.2432 202.475 19.299 201.168 19.3497C199.871 19.4105 198.639 19.4662 197.474 19.5169C196.308 19.5676 195.274 19.6081 194.372 19.6385L194.235 18.6351ZM194.098 13.907H206.687V14.88H194.098V13.907ZM196.683 10.988H203.965V11.9458H196.683V10.988ZM198.34 14.5151L199.48 14.8344C199.247 15.3209 198.994 15.8327 198.72 16.3699C198.457 16.907 198.188 17.429 197.914 17.9358C197.641 18.4426 197.377 18.8936 197.124 19.2889L196.212 18.9696C196.465 18.5642 196.723 18.103 196.987 17.5861C197.251 17.0591 197.504 16.527 197.747 15.9898C197.99 15.4425 198.188 14.9509 198.34 14.5151ZM201.928 16.1266L202.779 15.6553C203.256 16.0607 203.727 16.5016 204.193 16.978C204.659 17.4544 205.085 17.9256 205.47 18.3919C205.866 18.8581 206.18 19.2838 206.413 19.6689L205.501 20.2314C205.268 19.8463 204.958 19.4156 204.573 18.9392C204.188 18.4527 203.763 17.9662 203.296 17.4797C202.84 16.9831 202.384 16.532 201.928 16.1266ZM200.286 7.26323C199.871 7.88149 199.328 8.51495 198.659 9.16362C198.001 9.81228 197.261 10.4305 196.44 11.0184C195.629 11.6062 194.793 12.1181 193.931 12.5539C193.891 12.4627 193.835 12.3715 193.764 12.2802C193.693 12.1789 193.622 12.0775 193.551 11.9762C193.48 11.8748 193.404 11.7887 193.323 11.7177C194.205 11.3022 195.056 10.7954 195.877 10.1974C196.698 9.59944 197.443 8.96091 198.112 8.28184C198.781 7.59263 199.308 6.9237 199.693 6.27503H200.742C201.148 6.83248 201.609 7.37979 202.126 7.91696C202.653 8.444 203.21 8.94064 203.798 9.40686C204.396 9.86296 205.004 10.2785 205.622 10.6535C206.241 11.0184 206.854 11.3275 207.462 11.5809C207.35 11.6924 207.234 11.8343 207.112 12.0066C207.001 12.1789 206.899 12.336 206.808 12.4779C206.018 12.0927 205.207 11.6214 204.376 11.064C203.555 10.5066 202.784 9.89843 202.065 9.23963C201.355 8.58083 200.762 7.92203 200.286 7.26323Z" fill="black"/>
<path d="M53.4663 29.7688L55.5474 28.1359C57.1482 29.4166 58.4181 30.7506 59.3573 32.1379C60.3177 33.504 61.0328 34.9127 61.5023 36.364C61.9932 37.7941 62.3134 39.2668 62.4628 40.7823C62.6336 42.2763 62.7189 43.8024 62.7189 45.3605C62.7189 46.8973 62.6656 48.3807 62.5589 49.8108C62.4521 51.2195 62.2707 52.4788 62.0146 53.5886C61.7798 54.6772 61.4276 55.5523 60.9581 56.214C60.4885 56.8329 59.8268 57.2278 58.9731 57.3985C58.3754 57.5266 57.7244 57.6013 57.0201 57.6227C56.3371 57.644 55.6221 57.644 54.875 57.6227C54.8537 57.1317 54.7683 56.6302 54.6189 56.1179C54.4908 55.6057 54.2881 55.1361 54.0106 54.7092C54.843 54.7732 55.5687 54.8053 56.1877 54.8053C56.8067 54.7839 57.2976 54.7626 57.6604 54.7412C58.13 54.6772 58.4928 54.4744 58.749 54.1329C59.0051 53.7701 59.2079 53.1618 59.3573 52.308C59.528 51.4542 59.6454 50.4191 59.7094 49.2025C59.7948 47.9858 59.8375 46.6839 59.8375 45.2965C59.8375 43.8238 59.7628 42.4044 59.6134 41.0384C59.464 39.651 59.1652 38.317 58.7169 37.0364C58.2901 35.7557 57.6497 34.5178 56.796 33.3225C55.9636 32.1059 54.8537 30.9213 53.4663 29.7688ZM59.9656 39.5336L62.2067 40.8463C61.6731 41.9135 61.0007 43.0127 60.1897 44.1439C59.3999 45.2538 58.5462 46.3103 57.6284 47.3135C56.7106 48.2953 55.7928 49.1384 54.875 49.8428C54.6616 49.4799 54.3628 49.0851 53.9786 48.6582C53.5944 48.21 53.2209 47.8471 52.858 47.5696C53.7331 47.0147 54.6189 46.2997 55.5153 45.4246C56.4331 44.5281 57.2762 43.5676 58.0446 42.5431C58.8343 41.5186 59.4747 40.5155 59.9656 39.5336ZM61.3423 28.1359L63.9996 29.4806C62.8897 31.3802 61.545 33.2158 59.9656 34.9874C58.3861 36.7589 56.7426 38.2957 55.0351 39.5977C54.8857 39.3842 54.6829 39.1601 54.4268 38.9253C54.1707 38.6905 53.9145 38.4558 53.6584 38.221C53.4023 37.9648 53.1568 37.7621 52.922 37.6127C54.0533 36.8229 55.1418 35.9052 56.1877 34.8593C57.2549 33.8134 58.226 32.7142 59.1011 31.5617C59.9976 30.3877 60.7446 29.2458 61.3423 28.1359ZM64.5118 32.4261H82.0246V35.2435H64.5118V32.4261ZM63.7434 43.0554H82.6009V45.9048H63.7434V43.0554ZM71.4913 27.9438H74.5969V39.0534C74.5969 40.3127 74.5222 41.6147 74.3728 42.9593C74.2233 44.304 73.9459 45.6487 73.5403 46.9934C73.1561 48.338 72.5692 49.6507 71.7795 50.9313C71.0111 52.212 69.9972 53.4286 68.7379 54.5811C67.5 55.7337 65.9632 56.7796 64.1276 57.7187C63.9996 57.5053 63.8075 57.2491 63.5514 56.9503C63.2952 56.6515 63.0284 56.3527 62.751 56.0539C62.4735 55.7551 62.2067 55.5203 61.9506 55.3495C63.7648 54.5385 65.2589 53.6313 66.4328 52.6282C67.6281 51.625 68.5672 50.5578 69.2502 49.4266C69.9332 48.2953 70.4241 47.1428 70.7229 45.9688C71.0431 44.7949 71.2459 43.621 71.3312 42.4471C71.438 41.2518 71.4913 40.1099 71.4913 39.0214V27.9438ZM74.1807 43.7918C74.5435 45.1578 75.0878 46.5665 75.8135 48.0179C76.5605 49.4693 77.5423 50.8139 78.7589 52.0519C79.9755 53.2685 81.459 54.229 83.2092 54.9333C82.9957 55.1254 82.7503 55.3815 82.4728 55.7017C82.2167 56.0219 81.9712 56.3527 81.7364 56.6942C81.523 57.0357 81.3416 57.3452 81.1922 57.6227C79.8688 56.9823 78.6949 56.1819 77.6704 55.2215C76.6672 54.261 75.7921 53.2151 75.0451 52.0839C74.298 50.9527 73.6684 49.8001 73.1561 48.6262C72.6652 47.4309 72.2704 46.289 71.9716 45.2005L74.1807 43.7918ZM65.3122 36.7162L67.7454 36.0119C68.0656 36.6095 68.3537 37.2605 68.6099 37.9648C68.8873 38.6692 69.1221 39.3629 69.3142 40.0459C69.5277 40.7289 69.6771 41.3372 69.7625 41.8708L67.1371 42.7032C67.0304 41.8921 66.8063 40.921 66.4648 39.7898C66.1233 38.6585 65.7391 37.634 65.3122 36.7162ZM78.5348 35.8518L81.3522 36.6522C81.0748 37.3779 80.7653 38.1143 80.4238 38.8613C80.1036 39.587 79.7835 40.2913 79.4633 40.9744C79.1645 41.636 78.8763 42.223 78.5989 42.7352L76.1336 41.9989C76.4111 41.4439 76.6992 40.8143 76.9981 40.1099C77.2969 39.3842 77.5744 38.6479 77.8305 37.9008C78.108 37.1538 78.3427 36.4708 78.5348 35.8518ZM98.993 28.7122H102.195V53.5886H98.993V28.7122ZM87.9155 35.6597H90.989V57.2705H87.9155V35.6597ZM110.519 35.5957H113.656V57.1744H110.519V35.5957ZM89.4203 51.7637H111.895V54.8693H89.4203V51.7637ZM132.45 39.7257H146.185V42.319H132.45V39.7257ZM132.418 45.9688H146.633V48.6902H132.418V45.9688ZM137.7 27.9759H140.582V57.6547H137.7V27.9759ZM130.945 33.4506H147.593V49.8748H144.712V36.204H133.73V50.0349H130.945V33.4506ZM119.067 33.9308H128.704V36.6522H119.067V33.9308ZM123.229 27.9438H126.175V35.2435H123.229V27.9438ZM126.463 41.2625C126.676 41.4332 126.986 41.7 127.391 42.0629C127.818 42.4044 128.266 42.7886 128.736 43.2155C129.227 43.6423 129.664 44.0372 130.049 44.4001C130.454 44.7416 130.742 44.9977 130.913 45.1684L129.12 47.6017C128.885 47.3028 128.576 46.9293 128.192 46.4811C127.807 46.0329 127.402 45.574 126.975 45.1044C126.548 44.6348 126.132 44.1973 125.726 43.7918C125.342 43.3649 125.011 43.0234 124.734 42.7672L126.463 41.2625ZM127.583 33.9308H128.192L128.736 33.8028L130.401 34.8913C129.675 36.8763 128.715 38.7866 127.519 40.6222C126.345 42.4578 125.054 44.1226 123.645 45.6167C122.237 47.1107 120.807 48.3594 119.355 49.3625C119.27 49.0851 119.131 48.7649 118.939 48.4021C118.768 48.0392 118.587 47.687 118.395 47.3455C118.224 47.004 118.053 46.7479 117.882 46.5771C119.227 45.7234 120.529 44.6562 121.788 43.3755C123.048 42.0949 124.19 40.6969 125.214 39.1815C126.26 37.6447 127.05 36.0866 127.583 34.5071V33.9308ZM123.229 44.1119L126.175 40.5261V57.6227H123.229V44.1119ZM163.441 29.5126H177.432V32.1379H163.441V29.5126ZM164.658 46.7372H179.545V49.4266H164.658V46.7372ZM162.641 54.0369H180.922V56.7262H162.641V54.0369ZM176.568 29.5126H177.144L177.688 29.3846L179.737 30.281C178.884 32.7569 177.688 34.902 176.152 36.7162C174.615 38.5091 172.833 40.0139 170.805 41.2305C168.799 42.4471 166.632 43.4182 164.306 44.1439C164.114 43.7811 163.847 43.3542 163.505 42.8633C163.185 42.351 162.886 41.9455 162.609 41.6467C164.722 41.0704 166.707 40.2487 168.564 39.1815C170.442 38.1143 172.075 36.8123 173.462 35.2755C174.85 33.7387 175.885 31.9885 176.568 30.0249V29.5126ZM167.955 31.8498C169.087 34.2617 170.805 36.3107 173.11 37.9969C175.437 39.683 178.179 40.8676 181.338 41.5506C181.039 41.8495 180.698 42.2443 180.314 42.7352C179.951 43.2261 179.673 43.6637 179.481 44.0479C176.194 43.1514 173.345 41.7534 170.933 39.8538C168.542 37.9328 166.664 35.553 165.298 32.7142L167.955 31.8498ZM170.485 42.4791H173.462V55.7657H170.485V42.4791ZM156.078 27.9438L158.703 28.9684C158.297 29.7581 157.86 30.5905 157.39 31.4656C156.942 32.3194 156.483 33.1411 156.013 33.9308C155.565 34.6992 155.138 35.3822 154.733 35.9799L152.684 35.0834C153.089 34.4431 153.495 33.7067 153.9 32.8743C154.327 32.0419 154.733 31.1988 155.117 30.345C155.501 29.4699 155.821 28.6695 156.078 27.9438ZM159.695 31.6577L162.193 32.8103C161.467 34.0269 160.656 35.3075 159.759 36.6522C158.863 37.9969 157.956 39.2988 157.038 40.5581C156.142 41.7961 155.288 42.8846 154.477 43.8238L152.652 42.8313C153.249 42.1056 153.868 41.2838 154.509 40.366C155.17 39.4269 155.811 38.4558 156.43 37.4526C157.07 36.4494 157.668 35.4463 158.223 34.4431C158.778 33.4399 159.268 32.5115 159.695 31.6577ZM151.083 35.0514L152.556 33.0344C153.153 33.5253 153.751 34.0696 154.349 34.6672C154.946 35.2435 155.491 35.8304 155.981 36.4281C156.494 37.0044 156.889 37.538 157.166 38.0289L155.565 40.334C155.288 39.8431 154.904 39.2882 154.413 38.6692C153.922 38.0289 153.388 37.3992 152.812 36.7803C152.236 36.1399 151.659 35.5636 151.083 35.0514ZM158.639 39.1815L160.72 38.349C161.147 39.0534 161.552 39.8111 161.936 40.6222C162.342 41.4332 162.694 42.223 162.993 42.9914C163.292 43.7384 163.516 44.4214 163.665 45.0404L161.456 46.0329C161.328 45.4139 161.115 44.7095 160.816 43.9198C160.538 43.1301 160.208 42.319 159.823 41.4866C159.461 40.6542 159.066 39.8858 158.639 39.1815ZM150.987 42.191C152.417 42.1483 154.114 42.0842 156.078 41.9989C158.063 41.9135 160.08 41.8174 162.129 41.7107L162.097 44.1759C160.154 44.304 158.233 44.4321 156.334 44.5601C154.455 44.6669 152.759 44.7736 151.243 44.8803L150.987 42.191ZM159.407 46.9293L161.584 46.225C162.011 47.1428 162.406 48.1459 162.769 49.2345C163.153 50.323 163.441 51.2622 163.633 52.0519L161.328 52.8843C161.179 52.0732 160.923 51.1127 160.56 50.0029C160.197 48.8716 159.813 47.8471 159.407 46.9293ZM152.62 46.4811L155.181 46.9293C154.989 48.4447 154.701 49.9388 154.317 51.4116C153.954 52.8843 153.527 54.1329 153.036 55.1574C152.865 55.0507 152.641 54.9226 152.364 54.7732C152.086 54.6238 151.787 54.4851 151.467 54.357C151.168 54.2076 150.912 54.1009 150.699 54.0369C151.211 53.055 151.617 51.8918 151.915 50.5471C152.236 49.2025 152.47 47.8471 152.62 46.4811ZM156.142 43.4396H158.799V57.7187H156.142V43.4396ZM196.93 41.4866L199.235 39.8218C199.982 40.5048 200.782 41.2411 201.636 42.0309C202.511 42.8206 203.354 43.621 204.166 44.4321C204.998 45.2431 205.766 46.0329 206.471 46.8013C207.196 47.5483 207.805 48.2206 208.296 48.8183L205.798 50.8033C205.35 50.1843 204.774 49.4906 204.069 48.7222C203.386 47.9325 202.639 47.1214 201.828 46.289C201.039 45.4352 200.217 44.6028 199.363 43.7918C198.509 42.9593 197.698 42.191 196.93 41.4866ZM197.154 27.9438H200.292V34.8273C200.292 35.8731 200.228 36.9617 200.099 38.0929C199.971 39.2241 199.737 40.3767 199.395 41.5506C199.054 42.7246 198.541 43.8878 197.858 45.0404C197.197 46.1716 196.332 47.2708 195.265 48.338C194.198 49.4052 192.885 50.3977 191.327 51.3155C191.199 51.1021 191.007 50.8566 190.751 50.5791C190.495 50.2803 190.228 49.9922 189.95 49.7147C189.673 49.4372 189.406 49.2131 189.15 49.0424C190.665 48.2313 191.914 47.3669 192.896 46.4491C193.878 45.5099 194.657 44.5495 195.233 43.5676C195.809 42.5645 196.236 41.5613 196.514 40.5581C196.791 39.5336 196.962 38.5411 197.026 37.5807C197.111 36.5988 197.154 35.6704 197.154 34.7953V27.9438ZM185.692 33.3545H210.12V36.332H188.734V57.7187H185.692V33.3545ZM208.776 33.3545H211.753V53.9728C211.753 54.8479 211.636 55.5309 211.401 56.0219C211.188 56.5128 210.771 56.8863 210.153 57.1424C209.555 57.3772 208.744 57.5159 207.719 57.5586C206.716 57.6227 205.5 57.6547 204.069 57.6547C204.027 57.3772 203.952 57.0464 203.845 56.6622C203.739 56.2993 203.611 55.9365 203.461 55.5736C203.333 55.2108 203.194 54.8906 203.045 54.6132C203.749 54.6345 204.432 54.6558 205.094 54.6772C205.777 54.6985 206.375 54.7092 206.887 54.7092C207.399 54.6879 207.762 54.6772 207.975 54.6772C208.274 54.6558 208.477 54.5918 208.584 54.4851C208.712 54.3784 208.776 54.1863 208.776 53.9088V33.3545ZM221.742 30.7292H224.688V57.6227H221.742V30.7292ZM216.588 36.9403H229.202V39.7898H216.588V36.9403ZM221.902 38.0609L223.727 38.8613C223.407 39.9925 223.023 41.1771 222.575 42.4151C222.126 43.6317 221.636 44.8376 221.102 46.0329C220.59 47.2281 220.035 48.3487 219.437 49.3946C218.84 50.4404 218.231 51.3369 217.612 52.0839C217.463 51.657 217.239 51.1768 216.94 50.6432C216.641 50.0882 216.374 49.6293 216.139 49.2665C216.716 48.6262 217.281 47.8685 217.836 46.9934C218.391 46.0969 218.925 45.1471 219.437 44.1439C219.971 43.1194 220.44 42.0842 220.846 41.0384C221.273 39.9925 221.625 39 221.902 38.0609ZM227.121 28.296L228.882 30.7613C227.857 31.1454 226.705 31.5083 225.424 31.8498C224.165 32.17 222.863 32.4474 221.518 32.6822C220.195 32.8957 218.914 33.0877 217.676 33.2585C217.634 32.9383 217.527 32.5541 217.356 32.1059C217.185 31.6364 217.015 31.2415 216.844 30.9213C218.06 30.7292 219.298 30.5051 220.558 30.249C221.817 29.9715 223.012 29.6727 224.143 29.3526C225.296 29.011 226.289 28.6589 227.121 28.296ZM224.592 40.1099C224.784 40.302 225.093 40.6435 225.52 41.1344C225.947 41.6253 226.395 42.1589 226.865 42.7352C227.356 43.2902 227.793 43.8238 228.178 44.336C228.583 44.8269 228.871 45.1791 229.042 45.3926L227.217 47.7617C227.025 47.3562 226.758 46.8653 226.417 46.289C226.075 45.6914 225.702 45.0724 225.296 44.4321C224.891 43.7918 224.506 43.1941 224.143 42.6392C223.781 42.0842 223.471 41.6467 223.215 41.3265L224.592 40.1099ZM239.415 27.9118H242.393V57.6227H239.415V27.9118ZM228.754 48.6902L245.914 45.8408L246.363 48.6582L229.234 51.5716L228.754 48.6902ZM231.123 31.7537L233.076 30.0249C233.695 30.4304 234.335 30.9 234.997 31.4336C235.659 31.9672 236.278 32.5008 236.854 33.0344C237.43 33.568 237.889 34.0696 238.231 34.5391L236.117 36.4601C235.797 36.0119 235.36 35.5103 234.805 34.9553C234.271 34.3791 233.674 33.8134 233.012 33.2585C232.372 32.7036 231.742 32.202 231.123 31.7537ZM229.906 40.1419L231.827 38.3811C232.489 38.8079 233.172 39.2988 233.876 39.8538C234.602 40.3874 235.274 40.9317 235.893 41.4866C236.512 42.0202 237.003 42.5218 237.366 42.9914L235.317 44.9763C234.976 44.4854 234.495 43.9518 233.876 43.3755C233.279 42.7993 232.628 42.2336 231.923 41.6787C231.24 41.1024 230.568 40.5902 229.906 40.1419ZM258.369 36.8123H278.539V39.3736H258.369V36.8123ZM267.045 47.6657L268.87 46.1609C269.51 46.6945 270.182 47.2922 270.887 47.9538C271.613 48.6155 272.296 49.2665 272.936 49.9068C273.576 50.5258 274.099 51.0807 274.505 51.5716L272.584 53.2685C272.199 52.7776 271.698 52.2013 271.079 51.5396C270.46 50.878 269.788 50.2056 269.062 49.5226C268.358 48.8396 267.685 48.2206 267.045 47.6657ZM259.233 42.255H275.849V44.8483H261.954V57.6867H259.233V42.255ZM274.697 42.255H277.61V54.5491C277.61 55.2321 277.514 55.7764 277.322 56.1819C277.151 56.6088 276.81 56.9397 276.298 57.1744C275.828 57.3879 275.209 57.5159 274.441 57.5586C273.694 57.6227 272.776 57.644 271.687 57.6227C271.645 57.2598 271.516 56.8223 271.303 56.31C271.111 55.7977 270.908 55.3602 270.695 54.9973C271.463 55.0187 272.178 55.0294 272.84 55.0294C273.501 55.0507 273.928 55.0507 274.12 55.0294C274.355 55.008 274.505 54.9653 274.569 54.9013C274.654 54.8159 274.697 54.6772 274.697 54.4851V42.255ZM266.821 37.6767H269.478V43.0874C269.478 43.9412 269.403 44.8376 269.254 45.7767C269.105 46.6945 268.816 47.6123 268.39 48.5301C267.963 49.4479 267.354 50.323 266.565 51.1554C265.775 51.9878 264.74 52.7349 263.459 53.3965C263.288 53.1191 263.022 52.7882 262.659 52.4041C262.317 51.9985 262.008 51.6784 261.73 51.4436C262.861 50.91 263.769 50.3017 264.452 49.6187C265.156 48.9357 265.668 48.2206 265.988 47.4736C266.33 46.7052 266.554 45.9475 266.661 45.2005C266.767 44.4534 266.821 43.7491 266.821 43.0874V37.6767ZM255.807 31.4976H278.795V34.219H255.807V31.4976ZM254.174 31.4976H257.056V41.0704C257.056 42.3297 256.992 43.6957 256.864 45.1684C256.757 46.6198 256.522 48.0926 256.159 49.5866C255.797 51.0807 255.274 52.5214 254.591 53.9088C253.929 55.2748 253.043 56.5021 251.933 57.5906C251.784 57.3985 251.571 57.1638 251.293 56.8863C251.037 56.6302 250.759 56.374 250.461 56.1179C250.183 55.8831 249.948 55.7017 249.756 55.5736C250.759 54.5491 251.549 53.4392 252.125 52.244C252.723 51.0274 253.161 49.7787 253.438 48.4981C253.737 47.2175 253.929 45.9368 254.014 44.6562C254.121 43.3755 254.174 42.1696 254.174 41.0384V31.4976ZM263.971 27.9438H267.173V33.3225H263.971V27.9438ZM249.244 35.1795L251.453 34.0909C252.008 35.0087 252.52 36.0225 252.99 37.1324C253.459 38.2423 253.78 39.1921 253.95 39.9819L251.581 41.2625C251.474 40.7075 251.304 40.0886 251.069 39.4056C250.834 38.7012 250.557 37.9862 250.237 37.2605C249.916 36.5135 249.586 35.8198 249.244 35.1795ZM248.828 46.5451C249.596 46.2036 250.493 45.7767 251.517 45.2645C252.563 44.7522 253.641 44.208 254.751 43.6317L255.487 46.0329C254.548 46.5878 253.588 47.1534 252.606 47.7297C251.645 48.306 250.706 48.8396 249.788 49.3305L248.828 46.5451ZM300.117 28.0399H303.063V32.9383H300.117V28.0399ZM292.658 31.5617H311.099V37.6127H308.313V34.1549H295.379V37.6127H292.658V31.5617ZM295.123 37.3245H308.57V39.9498H295.123V37.3245ZM293.074 43.0234H311.099V45.7447H293.074V43.0234ZM297.076 44.272H299.957C299.872 45.9795 299.712 47.5376 299.477 48.9463C299.242 50.3337 298.847 51.5823 298.292 52.6922C297.759 53.8021 296.98 54.7626 295.955 55.5736C294.952 56.4061 293.64 57.0997 292.017 57.6547C291.932 57.4199 291.793 57.1531 291.601 56.8543C291.409 56.5555 291.206 56.2673 290.993 55.9898C290.779 55.7124 290.566 55.4883 290.353 55.3175C291.804 54.8479 292.956 54.2823 293.81 53.6207C294.664 52.959 295.315 52.1799 295.763 51.2835C296.233 50.387 296.553 49.3519 296.724 48.1779C296.894 47.004 297.012 45.702 297.076 44.272ZM302.999 43.9839H305.848V53.6207C305.848 54.0475 305.88 54.3143 305.944 54.4211C306.03 54.5278 306.211 54.5811 306.489 54.5811C306.574 54.5811 306.734 54.5811 306.969 54.5811C307.204 54.5811 307.438 54.5811 307.673 54.5811C307.929 54.5811 308.1 54.5811 308.185 54.5811C308.399 54.5811 308.559 54.4958 308.666 54.325C308.772 54.1543 308.847 53.7914 308.89 53.2365C308.932 52.6602 308.964 51.8064 308.986 50.6752C309.178 50.8459 309.423 51.006 309.722 51.1554C310.021 51.3048 310.33 51.4436 310.651 51.5716C310.992 51.6784 311.291 51.7637 311.547 51.8278C311.462 53.2578 311.312 54.3677 311.099 55.1574C310.885 55.9685 310.576 56.5234 310.17 56.8223C309.765 57.1424 309.21 57.3025 308.506 57.3025C308.378 57.3025 308.196 57.3025 307.961 57.3025C307.748 57.3025 307.513 57.3025 307.257 57.3025C307.001 57.3025 306.755 57.3025 306.521 57.3025C306.307 57.3025 306.136 57.3025 306.008 57.3025C305.197 57.3025 304.568 57.1851 304.119 56.9503C303.693 56.7369 303.394 56.3634 303.223 55.8298C303.074 55.2962 302.999 54.5598 302.999 53.6207V43.9839ZM283.117 29.3205H290.641V32.0419H285.774V57.6867H283.117V29.3205ZM289.744 29.3205H290.224L290.673 29.1925L292.658 30.345C292.359 31.2415 292.039 32.202 291.697 33.2265C291.356 34.2297 291.004 35.2221 290.641 36.204C290.299 37.1858 289.958 38.1036 289.616 38.9573C290.705 40.238 291.42 41.4332 291.761 42.5431C292.103 43.653 292.273 44.6989 292.273 45.6807C292.273 46.5985 292.167 47.3882 291.953 48.0499C291.761 48.7115 291.42 49.2131 290.929 49.5546C290.694 49.7254 290.427 49.8641 290.128 49.9708C289.851 50.0562 289.541 50.1309 289.2 50.195C288.581 50.259 287.877 50.2697 287.087 50.227C287.066 49.8641 286.991 49.4372 286.863 48.9463C286.756 48.4341 286.596 47.9965 286.383 47.6337C286.703 47.655 287.002 47.6657 287.279 47.6657C287.556 47.6657 287.813 47.6657 288.047 47.6657C288.453 47.6443 288.773 47.5483 289.008 47.3775C289.221 47.2068 289.371 46.94 289.456 46.5771C289.541 46.2143 289.584 45.7981 289.584 45.3285C289.584 44.5175 289.413 43.5997 289.072 42.5751C288.73 41.5506 288.037 40.4514 286.991 39.2775C287.268 38.5518 287.535 37.7728 287.791 36.9403C288.047 36.1079 288.293 35.2755 288.528 34.4431C288.784 33.5893 289.008 32.7996 289.2 32.0739C289.413 31.3269 289.595 30.6972 289.744 30.185V29.3205Z" fill="#12438D"/>
<path d="M19.1432 60.2672L18.5619 57.7646H17.0249L17.5865 60.2672H19.1432Z" fill="#00633D"/>
<path d="M19.231 60.2277H20.7187L21.2803 57.7646H19.7925L19.231 60.2277Z" fill="#00633D"/>
<path d="M24.0788 57.7941H22.1182V60.1389H24.0788V57.7941Z" fill="#00633D"/>
<path d="M9.30017 59.0758H7.15234V62.603H9.30017V59.0758Z" fill="#00633D"/>
<path d="M16.2067 59.3308H14.2461V62.6018H16.2067V59.3308Z" fill="#00633D"/>
<path d="M19.1818 60.4345L19.1128 60.129H17.5562L18.1177 62.602H20.1867L20.7483 60.129H19.2508L19.1818 60.4345Z" fill="#00633D"/>
<path d="M24.0788 59.6953H22.1182V62.6018H24.0788V59.6953Z" fill="#00633D"/>
<path d="M30.9858 57.1539V58.8584H33.3209C33.2125 59.5086 32.9366 60.0407 32.4834 60.4446C32.0302 60.8486 31.4489 61.0555 30.7395 61.0555C30.0302 61.0555 29.3701 60.7993 28.8085 60.2771C28.237 59.7648 27.9612 58.8781 27.9612 57.6367C27.9612 57.1441 28.0597 56.4839 28.1484 56.0898H25.9316C25.8823 56.2081 25.7739 57.1638 25.7739 57.617C25.7739 59.2426 26.2173 60.5234 27.1139 61.4594C27.971 62.3954 29.0745 62.8584 30.4144 62.8584C31.2322 62.8584 31.9218 62.691 32.4834 62.3461C32.8085 62.1491 33.1731 61.8141 33.5869 61.3313L33.8135 62.6023H35.2224V57.1539H30.9858Z" fill="#00633D"/>
<mask id="mask0_2407_50" style="mask-type:luminance" maskUnits="userSpaceOnUse" x="3" y="52" width="34" height="11">
<path d="M4.24613 61.1435C3.03428 60.3454 9.13292 58.0892 17.8523 56.0991C26.5815 54.1089 34.6408 53.1433 35.8526 53.9414C37.0645 54.7394 30.9757 56.9956 22.2465 58.9858C15.5961 60.5031 9.32997 61.4194 6.18705 61.4194C5.20181 61.4194 4.53185 61.3307 4.23627 61.1435M17.1922 55.0941C8.13783 57.2419 2.06875 60.0794 3.64513 61.4292C5.22151 62.779 13.8522 62.1287 22.9066 59.9809C31.9708 57.8331 38.03 54.9956 36.4536 53.6458C35.892 53.1729 34.4634 52.9463 32.4437 52.9463C28.7392 52.9463 23.0544 53.7049 17.1922 55.104" fill="white"/>
</mask>
<g mask="url(#mask0_2407_50)">
<path d="M33.4299 40.9268L-1.2168 54.2056L6.67785 74.8041L41.3245 61.5253L33.4299 40.9268Z" fill="url(#paint0_linear_2407_50)"/>
</g>
<path d="M12.344 54.2477V52.4447H4.10742V54.2477H7.15181V59.5877H9.28979V54.2477H12.344Z" fill="#00633D"/>
<path d="M17.3298 52.4447H14.2559V59.6567H16.2165V55.7354C16.2165 55.5384 16.2165 55.2625 16.2165 54.9078C16.2165 54.5531 16.2165 54.2772 16.2165 54.0802L17.0638 57.8537H18.6008L17.3397 52.4447H17.3298Z" fill="#00633D"/>
<path d="M24.0696 52.4447H21.0252L19.7739 57.8537H21.2518L22.1188 54.0802C22.1188 54.2772 22.1188 54.5531 22.1188 54.9078C22.1188 55.2625 22.1188 55.5384 22.1188 55.7354V57.8537H24.0794V52.4447H24.0696Z" fill="#00633D"/>
<path d="M28.7385 54.8578C29.2607 54.247 29.9307 53.9317 30.7484 53.9317C31.1721 53.9317 31.5563 54.0105 31.911 54.1583C32.5317 54.4342 32.9258 54.9169 33.0835 55.6165H35.1919C35.0736 54.6312 34.6303 53.8135 33.8421 53.1632C33.0637 52.5031 32.0194 52.178 30.7287 52.178C29.241 52.178 28.039 52.6706 27.1326 53.6657C26.4823 54.3751 26.0685 55.2618 25.8813 56.316H28.0883C28.2164 55.7248 28.4233 55.2322 28.7385 54.8578Z" fill="#00633D"/>
<path d="M38.0401 15.5177C37.518 15.5177 32.8381 15.5965 28.1877 17.1335C24.0497 18.5029 21.1728 20.6212 19.6654 23.3799C18.1186 20.5522 15.1333 18.4044 10.8376 17.0349C6.10849 15.5374 1.4483 15.5177 1.25126 15.5177H0V29.912C0 32.5328 1.0345 35.0156 3.17247 37.5181C5.04443 39.7053 7.52724 41.6167 9.71447 43.2029C14.3648 46.5724 18.9462 48.6316 19.1334 48.7203L19.6457 48.9469L20.158 48.7203C20.3551 48.6316 24.9266 46.5724 29.5769 43.2029C31.7641 41.6167 34.247 39.7053 36.1189 37.5181C38.2569 35.0254 39.2914 32.5328 39.2914 29.912V15.5078H38.0401V15.5177ZM36.7987 29.912C36.7987 31.9121 35.9613 33.8727 34.2272 35.8924C32.5326 37.8826 30.1878 39.6758 28.1188 41.1733C24.562 43.7547 20.9561 45.5675 19.6555 46.1981C18.355 45.5773 14.7589 43.7547 11.1923 41.1733C9.12333 39.6758 6.77845 37.8826 5.08384 35.8924C3.34982 33.8628 2.51236 31.9121 2.51236 29.912V18.0596C4.14786 18.1581 7.17255 18.4734 10.148 19.4291C10.6603 19.5966 11.1529 19.7641 11.616 19.9512H11.6258C13.419 20.6705 14.8673 21.567 15.9609 22.6114L16.02 22.6705L16.0496 22.6902C17.4092 23.9218 18.6013 25.4981 19.4585 27.4489C19.5078 27.5573 19.5964 27.6066 19.6851 27.6164C19.7738 27.6164 19.8624 27.5573 19.9117 27.4489C20.759 25.5179 21.9315 23.9612 23.2714 22.7296L23.3305 22.6705C24.365 21.6557 25.7443 20.7788 27.4389 20.0695C27.4586 20.0596 28.572 19.6261 28.9956 19.4882C32.0302 18.4832 35.1435 18.1581 36.8184 18.0497V29.9022L36.7987 29.912Z" fill="#ED7A9B"/>
<path d="M19.665 2C18.0985 2 16.8374 3.27096 16.8374 4.82764C16.8374 6.38432 18.1084 7.65528 19.665 7.65528C21.2217 7.65528 22.4927 6.38432 22.4927 4.82764C22.4927 3.27096 21.2217 2 19.665 2Z" fill="#E84D81"/>
<path d="M31.7539 8.03964C31.4091 8.03964 28.2563 8.0889 25.143 9.1234C23.2513 9.7441 21.7242 10.621 20.6207 11.7047C20.2562 12.0594 19.9409 12.4338 19.6749 12.8279C19.3793 12.4043 19.0345 12.0003 18.6404 11.6259C17.4975 10.5323 15.931 9.67514 13.99 9.05444C10.8176 8.04949 7.68451 8.03964 7.55643 8.03964H6.30518V28.109C6.30518 32.0204 9.62544 34.9466 12.8767 37.3013C15.9704 39.5378 19.0246 40.9171 19.1527 40.9762L19.665 41.2028L20.1774 40.9762C20.3054 40.9171 23.3597 39.5378 26.4533 37.3013C29.7046 34.9466 33.0249 32.0204 33.0249 28.109V8.02979H31.7736L31.7539 8.03964ZM30.5125 28.109C30.5125 30.8972 27.7144 33.3012 24.9755 35.2815C22.808 36.8481 20.6207 37.9811 19.6552 38.454C18.6896 37.9811 16.5024 36.8481 14.3349 35.2815C11.5959 33.3012 8.79783 30.8972 8.79783 28.109V10.6013C9.86189 10.6899 11.4777 10.8968 13.1033 11.3993C16.0196 12.2663 18.1675 14.0989 19.4384 16.4339C19.5468 16.6309 19.8128 16.6309 19.9113 16.4339C21.1626 14.1284 23.271 12.3057 26.1282 11.4289C27.7736 10.9165 29.4288 10.6899 30.5224 10.6013V28.109H30.5125Z" fill="#E84D81"/>
<defs>
<linearGradient id="paint0_linear_2407_50" x1="3.81022" y1="65.4224" x2="29.4502" y2="55.5955" gradientUnits="userSpaceOnUse">
<stop stop-color="#BFDEAE"/>
<stop offset="0.5" stop-color="#2AA738"/>
<stop offset="1" stop-color="#BFDEAE"/>
</linearGradient>
</defs>
</svg>
